<?xml version="1.0" encoding="utf-8"?>
<!-- Generator: Adobe Illustrator 21.1.0, SVG Export Plug-In . SVG Version: 6.00 Build 0)  -->
<svg xmlns="http://www.w3.org/2000/svg" xmlns:xlink="http://www.w3.org/1999/xlink" version="1.1" id="Layer_1" x="0px" y="0px" width="512" height="512" viewBox="0 0 200 200" enable-background="new 0 0 200 200" xml:space="preserve">
<g>
	<g>
		<polygon fill="#FF8E31" points="99.999,128.293 0,160.897 99.999,193.51 200,160.897   "/>
		<g>
			<path fill="#FF9D4D" d="M104.521,1.55h-9.04L40.237,160.897c0,4.587,26.762,8.299,59.762,8.299s59.762-3.712,59.762-8.299     L104.521,1.55z"/>
			<path fill="#F2F9FD" d="M146.828,123.607l-0.185-0.547l-10.864-31.333c0,2.742-16.02,4.966-35.78,4.966     c-19.756,0-35.773-2.225-35.773-4.966L53.357,123.06l-0.185,0.547c-0.007,0.011-0.007,0.026-0.007,0.041     c0,3.594,20.973,6.506,46.834,6.506s46.84-2.913,46.84-6.506C146.839,123.633,146.839,123.618,146.828,123.607z"/>
			<path fill="#F2F9FD" d="M128.381,70.391l-11.045-31.859c-0.082,1.319-7.818,2.389-17.338,2.389     c-9.511,0-17.252-1.069-17.34-2.389L71.62,70.391c-0.011,0.006-0.011,0.006-0.011,0.013v0.039c0,2.174,12.706,3.938,28.388,3.938     c15.684,0,28.386-1.764,28.386-3.938v-0.039C128.385,70.397,128.385,70.397,128.381,70.391z"/>
			<path fill="#F28124" d="M104.517,1.55c0,0.34-2.027,0.621-4.518,0.621c-2.488,0-4.511-0.282-4.511-0.621     c0-0.347,2.023-0.627,4.511-0.627C102.491,0.921,104.517,1.203,104.517,1.55z"/>
		</g>
		<polygon fill="#F28124" points="99.999,199.077 200,166.488 200,160.897 99.999,193.51   "/>
		<polygon fill="#F28124" points="99.999,199.077 0,166.488 0,160.897 99.999,193.51   "/>
	</g>
	<g>
		<path fill="#FFBF69" d="M84.014,96.165l3.3-22.203c-5.162-0.358-9.436-0.926-12.209-1.627l-6.47,21.779    C72.128,94.997,77.51,95.713,84.014,96.165z"/>
		<path fill="#FFBF69" d="M58.93,126.777l-11.325,38.119c5.84,1.474,14.816,2.684,25.686,3.43l5.774-38.856    C70.545,128.877,63.506,127.935,58.93,126.777z"/>
		<path fill="#FFBF69" d="M92.261,40.665l5.728-38.541c-0.829-0.054-1.5-0.149-1.945-0.269L84.808,39.672    C86.506,40.1,89.115,40.445,92.261,40.665z"/>
	</g>
</g>
</svg>
