<svg id="Capa_1" enable-background="new 0 0 512 512" height="512" viewBox="0 0 512 512" width="512" xmlns="http://www.w3.org/2000/svg"><g><g><path d="m170.529 295.166h76.082v16.514h-76.082z" fill="#c9c5c9" transform="matrix(.707 -.707 .707 .707 -153.464 236.352)"/></g><path d="m185.162 165.161c0 91.216 70.454 160.376 161.67 160.376 35.542 0 92.134-16.128 122.35-49.43 26.602-29.319 42.811-68.239 42.811-110.946 0-91.216-73.945-165.161-165.161-165.161-42.719 0-81.65 16.219-110.972 42.834-33.287 30.216-50.698 92.007-50.698 122.327z" fill="#dbd8db"/><circle cx="346.832" cy="165.161" fill="#ffdfdb" r="132.129"/><circle cx="346.832" cy="165.161" fill="#fff" r="115.613"/><path d="m193.228 330.444-11.679-11.679-18.107 5.251-26.281 26.281 37.374 22.196 18.692-18.692c6.451-6.449 6.451-16.907.001-23.357z" fill="#dbd8db"/><path d="m158.192 318.765-18.692 18.692c-7.616 7.616-9.142 18.923-4.766 28.125l46.815-46.818c-6.45-6.448-16.907-6.448-23.357.001z" fill="#c9c5c9"/><g fill="#ff5f7a"><path d="m316.219 162.742c1.613 1.613 3.726 2.419 5.839 2.419s4.226-.806 5.839-2.419c3.226-3.226 3.226-8.452 0-11.677l-10.677-10.677 10.677-10.677c3.226-3.226 3.226-8.452 0-11.677s-8.452-3.226-11.677 0l-10.677 10.677-10.677-10.677c-3.226-3.226-8.452-3.226-11.677 0-3.226 3.226-3.226 8.452 0 11.677l10.677 10.677-10.677 10.677c-3.226 3.226-3.226 8.452 0 11.677 1.613 1.613 3.726 2.419 5.839 2.419s4.226-.806 5.839-2.419l10.677-10.677z"/><path d="m399.8 140.387 10.677-10.677c3.226-3.226 3.226-8.452 0-11.677-3.226-3.226-8.452-3.226-11.677 0l-10.677 10.677-10.677-10.677c-3.226-3.226-8.452-3.226-11.677 0s-3.226 8.452 0 11.677l10.677 10.677-10.677 10.677c-3.226 3.226-3.226 8.452 0 11.677 1.613 1.613 3.726 2.419 5.839 2.419s4.226-.806 5.839-2.419l10.677-10.677 10.677 10.677c1.613 1.613 3.726 2.419 5.839 2.419s4.226-.806 5.839-2.419c3.226-3.226 3.226-8.452 0-11.677z"/><path d="m346.832 198.194c-17.935 0-35.121 6.903-47.137 18.94-3.218 3.226-3.218 8.456.016 11.677 3.21 3.218 8.452 3.226 11.677-.008 8.935-8.956 21.855-14.093 35.444-14.093s26.508 5.137 35.444 14.093c1.613 1.617 3.734 2.423 5.847 2.423s4.226-.806 5.831-2.415c3.234-3.222 3.234-8.452.016-11.677-12.017-12.037-29.202-18.94-47.138-18.94z"/></g><path d="m135.804 353.284-122.489 122.489-10.908 22.135c1.181 2.472 2.795 4.788 4.842 6.835 9.675 9.675 25.361 9.675 35.036 0l132.25-132.25-23.358-23.358z" fill="#736572"/><path d="m139.5 337.457-132.251 132.251c-7.616 7.616-9.218 18.999-4.842 28.2l148.77-148.773z" fill="#615260"/><path d="m358.21 318.944c-91.216 0-165.161-73.945-165.161-165.161 0-42.711 16.205-81.629 42.811-110.948-33.298 30.216-54.189 73.821-54.189 122.327 0 91.216 73.945 165.161 165.161 165.161 48.506 0 92.134-20.917 122.35-54.215-29.319 26.606-68.26 42.836-110.972 42.836z" fill="#c9c5c9"/></g></svg>