<svg fill="none" height="512" viewBox="0 0 64 64" width="512" xmlns="http://www.w3.org/2000/svg"><path clip-rule="evenodd" d="m5.33301 31.9999c0-14.7276 11.93909-26.66665 26.66669-26.66665 7.0724 0 13.8552 2.80952 18.8562 7.81045 5.0009 5.001 7.8104 11.7838 7.8104 18.8562 0 14.7276-11.939 26.6667-26.6666 26.6667s-26.66669-11.9391-26.66669-26.6667zm37.33329.0155c.7111 0 1.3927-.284 1.8934-.7888.5048-.5007.7888-1.1823.7888-1.8933 0-.7111-.284-1.3927-.7888-1.8934l-10.6667-10.6666c-.2536-.2428-.5527-.4331-.88-.56-.6492-.2668-1.3774-.2668-2.0267 0-.3273.1269-.6263.3172-.88.56l-10.6666 10.6666c-.6764.6764-.9406 1.6623-.693 2.5864.2476.924.9693 1.6457 1.8933 1.8933s1.9099-.0166 2.5863-.693l6.1067-6.1333v20.24c0 1.4727 1.1939 2.6666 2.6667 2.6666 1.4727 0 2.6666-1.1939 2.6666-2.6666v-20.24l6.1067 6.1333c.5007.5048 1.1823.7888 1.8933.7888z" fill="rgb(0,0,0)" fill-rule="evenodd"/></svg>